<svg width="259" height="154" viewBox="0 0 259 154" fill="none" xmlns="http://www.w3.org/2000/svg">
<path d="M52.7 46.4C52.7 46.4 92.4 -41.5 170.4 26.5" stroke="#3108F9" stroke-miterlimit="10" stroke-linecap="round" stroke-linejoin="round"/>
<path d="M147.1 35C174.5 22.7 212.1 10.6 238.1 31.9C256.1 46.7 262.4 72.3 253.6 93.8C253.6 93.8 245.7 132.4 178.6 129.3" stroke="#3108F9" stroke-miterlimit="10" stroke-linecap="round" stroke-linejoin="round"/>
<path d="M184.8 111.7C184.8 111.7 182.3 130.6 163.8 143.1C137.9 160.6 102.1 153.1 85.2 126.7C81.4 120.7 78.1 113.5 76 104.7" stroke="#3108F9" stroke-miterlimit="10" stroke-linecap="round" stroke-linejoin="round"/>
<path d="M72.0999 52.9C72.0999 52.9 31.2999 30.9 9.09992 64.3C-3.80008 83.7 -0.600008 110 17.8 124.4C30.7 134.5 50.9 138.9 81.3 119.6" stroke="#3108F9" stroke-miterlimit="10" stroke-linecap="round" stroke-linejoin="round"/>
</svg>
