<?xml version="1.0" encoding="utf-8"?>
<!-- Generator: Adobe Illustrator 24.2.1, SVG Export Plug-In . SVG Version: 6.00 Build 0)  -->
<svg version="1.1" id="Layer_1" xmlns="http://www.w3.org/2000/svg" xmlns:xlink="http://www.w3.org/1999/xlink" x="0px" y="0px"
	 viewBox="0 0 262.6 157.5" style="enable-background:new 0 0 262.6 157.5;" xml:space="preserve">
<style type="text/css">
	.st0{fill:#FFFFFF;}
	.st1{fill:none;stroke:#3108F9;stroke-width:2;stroke-linecap:round;stroke-linejoin:round;stroke-miterlimit:10;}
</style>
<g id="XMLID_1_">
	<g>
		<path class="st0" d="M171.5,28c23.2-7.4,48.9-10,68.2,5.8c18,14.8,24.3,40.4,15.5,61.9c0,0-8.9,38.5-76,35.3
			c-3.1,4.7-7.6,9.7-13.8,14c-25.9,17.5-61.7,10-78.6-16.4c-1.4-2.2-2.7-4.5-3.9-7.1c-30.4,19.3-50.6,14.9-63.5,4.8
			C1,111.9-2.2,85.6,10.7,66.2c12.2-18.3,30-20,43.6-17.7l0-0.2C54.3,48.3,93.8-39.2,171.5,28z"/>
	</g>
	<g>
		<path class="st1" d="M54.3,48.3c0,0,39.5-87.6,117.2-20.3c0.2,0.1,0.3,0.3,0.5,0.4"/>
		<path class="st1" d="M148.7,36.9c7.1-3.2,14.8-6.3,22.8-8.9c23.2-7.4,48.9-10,68.2,5.8c18,14.8,24.3,40.4,15.5,61.9
			c0,0-8.9,38.5-76,35.3"/>
		<path class="st1" d="M186.4,113.6c0,0-1.1,8.2-7.2,17.4c-3.1,4.7-7.6,9.7-13.8,14c-25.9,17.5-61.7,10-78.6-16.4
			c-1.4-2.2-2.7-4.5-3.9-7.1c-2.1-4.4-3.9-9.3-5.3-14.9"/>
		<path class="st1" d="M73.7,54.8c0,0-8.3-4.5-19.4-6.3c-13.6-2.3-31.4-0.6-43.6,17.7c-12.9,19.4-9.7,45.7,8.7,60.1
			c12.9,10.1,33.1,14.5,63.5-4.8c0,0,0,0,0,0"/>
	</g>
</g>
</svg>
