<?xml version="1.0" encoding="utf-8"?>
<!-- Generator: Adobe Illustrator 24.2.1, SVG Export Plug-In . SVG Version: 6.00 Build 0)  -->
<svg version="1.1" id="Layer_1" xmlns="http://www.w3.org/2000/svg" xmlns:xlink="http://www.w3.org/1999/xlink" x="0px" y="0px"
	 viewBox="0 0 595.3 841.9" style="enable-background:new 0 0 595.3 841.9;" xml:space="preserve">
<style type="text/css">
	.st0{fill:#FFFFFF;}
	.st1{fill:none;stroke:#3108F9;stroke-linecap:round;stroke-linejoin:round;stroke-miterlimit:10;}
</style>
<g id="XMLID_15_">
	<g>
		<path class="st0" d="M258.6,416.8c-0.4-0.2-5.5-2.9-12.3-4.2l-1-0.4c0,0,27.2-60.2,80.7-13.9c15.9-5.1,33.6-6.9,46.9,4
			c12.4,10.2,16.7,27.8,10.7,42.6c0,0-5.4,26.6-51.6,24.4l1.1-3.2c2.4-4.7,3.1-8.4,3.1-8.9l-3.1,8.9c-2.1,4.1-5.6,8.8-11.3,12.7
			c-17.8,12-42.5,6.8-54.1-11.3c-1-1.5-1.9-3.1-2.7-4.9l-3.6-10.3c0.9,3.8,2.2,7.2,3.6,10.3C244,476,230.1,473,221.3,466
			c-12.6-9.9-14.8-28-6-41.4c8.7-13.1,21.5-13.8,31-12L258.6,416.8z"/>
	</g>
	<g>
		<path class="st1" d="M258.6,416.9L258.6,416.9l-12.4-4.2l-1-0.4c0,0,27.2-60.2,80.7-13.9c0.1,0.1,0.2,0.2,0.3,0.2"/>
		<path class="st1" d="M265,462.7C244,476,230.1,473,221.3,466c-12.6-9.9-14.8-28-6-41.4c8.7-13.1,21.5-13.8,31-12
			c6.9,1.3,11.9,3.9,12.3,4.2"/>
		<path class="st1" d="M265,462.7c-1.5-3-2.7-6.4-3.6-10.3L265,462.7z"/>
		<path class="st1" d="M336.2,457.3C336.2,457.3,336.2,457.3,336.2,457.3c-0.1,0.4-0.7,4.2-3.1,8.9c-2.1,4.1-5.6,8.8-11.3,12.7
			c-17.8,12-42.5,6.8-54.1-11.3c-1-1.5-1.9-3.1-2.7-4.9"/>
		<path class="st1" d="M310.2,404.5c4.9-2.2,10.2-4.3,15.7-6.1c15.9-5.1,33.6-6.9,46.9,4c12.4,10.2,16.7,27.8,10.7,42.6
			c0,0-5.4,26.6-51.6,24.4l1.1-3.2l3.1-8.9"/>
	</g>
</g>
</svg>
