<?xml version="1.0" encoding="utf-8"?>
<!-- Generator: Adobe Illustrator 24.2.1, SVG Export Plug-In . SVG Version: 6.00 Build 0)  -->
<svg version="1.1" id="Layer_1" xmlns="http://www.w3.org/2000/svg" xmlns:xlink="http://www.w3.org/1999/xlink" x="0px" y="0px"
	 viewBox="0 0 595.3 841.9" style="enable-background:new 0 0 595.3 841.9;" xml:space="preserve">
<style type="text/css">
	.st0{fill:#3108F9;}
	.st1{fill:none;stroke:#FFFFFF;stroke-miterlimit:10;}
	.st2{fill:none;}
	.st3{font-family:'Gotham-Medium';}
	.st4{font-size:16.2px;}
	.st5{fill:none;stroke:#3108F9;stroke-linecap:round;stroke-linejoin:round;stroke-miterlimit:10;}
</style>
<g id="XMLID_11_">
	<g>
		<polygon class="st0" points="376.5,433.7 369,438 361.5,442.4 361.5,433.7 361.5,425 369,429.3 		"/>
		<polygon class="st0" points="361.5,433.7 354,438 346.4,442.4 346.4,433.7 346.4,425 354,429.3 		"/>
		<polygon class="st0" points="304.6,433.7 295,439.2 285.3,444.8 285.3,433.7 285.3,422.5 295,428.1 		"/>
		<polygon class="st0" points="243.5,433.7 243.5,442.4 235.9,438 228.4,433.7 235.9,429.3 243.5,425 		"/>
		<polygon class="st0" points="228.4,433.7 228.4,442.4 220.9,438 213.4,433.7 220.9,429.3 228.4,425 		"/>
	</g>
	<g>
		<polygon class="st1" points="304.6,433.7 295,439.2 285.3,444.8 285.3,433.7 285.3,422.5 295,428.1 		"/>
		<polygon class="st1" points="213.4,433.7 220.9,429.3 228.4,425 228.4,433.7 228.4,442.4 220.9,438 		"/>
		<polygon class="st1" points="228.4,433.7 235.9,429.3 243.5,425 243.5,433.7 243.5,442.4 235.9,438 		"/>
		<polygon class="st1" points="376.5,433.7 369,438 361.5,442.4 361.5,433.7 361.5,425 369,429.3 		"/>
		<polygon class="st1" points="361.5,433.7 354,438 346.4,442.4 346.4,433.7 346.4,425 354,429.3 		"/>
	</g>
</g>
<g>
	<rect x="94" y="394" class="st2" width="407.9" height="14.5"/>
	<text transform="matrix(1 0 0 1 166.9312 405.8512)" class="st0 st3 st4">Japanese Denim - Daniel Caesar</text>
</g>
<circle class="st5" cx="292.3" cy="433" r="18.4"/>
<path class="st5" d="M459.9,456.2H130c-18.9,0-34.3-15.4-34.3-34.3v0c0-18.9,15.4-34.3,34.3-34.3h329.9c18.9,0,34.3,15.4,34.3,34.3
	v0C494.2,440.8,478.8,456.2,459.9,456.2z"/>
</svg>
