<?xml version="1.0" encoding="utf-8"?>
<!-- Generator: Adobe Illustrator 24.2.1, SVG Export Plug-In . SVG Version: 6.00 Build 0)  -->
<svg version="1.1" xmlns="http://www.w3.org/2000/svg" xmlns:xlink="http://www.w3.org/1999/xlink" x="0px" y="0px"
	 viewBox="0 0 1440 1024" style="enable-background:new 0 0 1440 1024;" xml:space="preserve">
<style type="text/css">
	.st0{fill:none;stroke:#3108F9;stroke-miterlimit:10;}
	.st1{fill:none;stroke:#3108F9;stroke-linecap:round;stroke-linejoin:round;stroke-miterlimit:10;}
	.st2{display:none;}
	.st3{display:inline;fill:none;stroke:#3108F9;stroke-linecap:round;stroke-linejoin:round;stroke-miterlimit:10;}
	.st4{display:inline;}
	.st5{display:inline;opacity:0.65;fill:#F7EA06;}
	.st6{display:inline;fill:none;stroke:#3108F9;stroke-miterlimit:10;}
</style>
<g id="sleep_women_trace">
	<rect x="14" y="0" class="st0" width="660.6" height="623.9"/>
	<polyline class="st0" points="652.9,0 652.9,613 501.6,613 	"/>
	<polyline class="st0" points="38.7,0 38.7,613 168.3,613 	"/>
	<line class="st0" x1="652.9" y1="613" x2="674.5" y2="623.9"/>
	<line class="st0" x1="14" y1="623.9" x2="38.7" y2="613"/>
	<rect x="43.3" y="0" class="st0" width="599" height="163.2"/>
	<rect x="67.4" y="0" class="st0" width="550.9" height="135.2"/>
	<line class="st0" x1="81.5" y1="135.2" x2="81.5" y2="0"/>
	<line class="st0" x1="606.7" y1="135.2" x2="606.7" y2="0"/>
	<line class="st0" x1="612.2" y1="135.2" x2="612.2" y2="0"/>
	<line class="st0" x1="75.3" y1="135.2" x2="75.3" y2="0"/>
	<polyline class="st0" points="43.3,163.2 56.7,177.1 630.5,177.1 642.3,163.2 	"/>
	<polyline class="st0" points="55.9,176.3 53.8,179.3 61.4,186.8 630,186.8 636.1,178.3 634.6,172.3 	"/>
	<polyline class="st0" points="501.6,601.8 640.5,601.8 640.5,165.4 	"/>
	<polyline class="st0" points="49.2,169.3 49.2,601.8 168.3,601.8 	"/>
	<polyline class="st0" points="501.6,595.2 634.2,595.2 634.2,182.2 	"/>
	<path class="st0" d="M501.6,595.2"/>
	<polyline class="st0" points="55.9,181.3 55.9,595.2 168.3,595.2 	"/>
	<line class="st0" x1="627.8" y1="186.8" x2="627.8" y2="595.2"/>
	<line class="st0" x1="61.4" y1="186.8" x2="61.4" y2="595.2"/>
	<path class="st0" d="M-2.1,756.7c0,0,95,14.8,123.5,12.6s70.3-13.4,78.5-18.1s90.2-35.4,100.1-35.4l5.5-0.5"/>
	<path class="st0" d="M450.3,931.3l-101.9-4.8c-20.7,0.4-121.3-12.1-140.7-12.5c-19.4-0.4-62.6,0-88,2.2c-25.5,2.2-82,7.8-82,7.8
		s-38.8,6.6-43.5,5.4"/>
	<path class="st0" d="M0,846.1c0,0,109.4,6.8,153.2,24.4c0,0,13.3,6.2,39.8,2.3c26.5-3.9,34.6-6.1,41.4-6.9
		c6.4-0.7,84.7-4.1,109.4-1.4c0,0,22.2,0,36.2-5.7"/>
	<path class="st1" d="M632.6,746.4c-11-0.1-26.2-12-26.2-12c-14.8-10.7-24.9-15.5-30.9-17.5c-4.1-1.4-7.8-3.5-11.3-6
		c-3.9-2.9-9.5-6.1-14.8-8c-8.3-3-35.3-11.3-84.6-17.3s-101,7.6-132.2,16.1c-22.2,6.1-28.9,9.8-31,11.4c-0.5,0.4-0.3,1.1,0.3,1.3
		l5.2,1.4c0.2,0.1,0.4,0.1,0.7,0.1c2.2,0.4,15.6,3.3,20.2,14.6c5,12.3,12.5,44.7,15.7,61.6c3.2,16.9,8.1,36,22.1,51.3
		c14.1,15.3,20.3,20.8,35.8,28.5c15.5,7.8,58.2,25.2,49.4,57.4l-0.7,2c0,0,28.7,0.1,34.2,0.2"/>
	<path class="st0" d="M657.2,763.1c0,0-4.4-19.6-9.8-23.9c-2.4-1.9-5.1-2.7-7.3-2.9c-3.2-0.3-6.3,1-8.1,3.7c-1,1.6-1.7,3.6-0.7,5.6
		c0.6,1.3,3,0.9,3.9,0.8c0.3,0,0.5-0.1,0.8-0.3c7-3.8,12.7,34.7,14.1,46.5c1.4,12,8,36.1,11.9,47.3c3.9,11.3,21.8,30.1,21.8,30.1"/>
	<path class="st0" d="M671.5,763.1c0,0-6.4-19.9-9.8-22.5c-3.4-2.6-6.2-2.7-7.8-2.6c-1.7,0.1-4.5,2.5-4.1,4.1"/>
	<path class="st0" d="M686.6,764.1c0,0-7-17.4-11.3-22.4c-4.3-5-10.6-3.7-12.6,0"/>
	<path class="st0" d="M717.4,830.7c0,0-6.7-14.7-7.2-30.9c-0.4-16.2-6.1-23.6-6.1-23.6s-8-29.9-9.3-35.4c-1.3-5.5-3.1-9.4-6.3-10.8
		c-3.2-1.4-7.8-0.6-10,3.3c-2.2,3.9-3.2,8.4-3.2,8.4"/>
	<path class="st0" d="M680.3,750.1c0,0,2.6-7.3,2.2-7.9c-0.4-0.6,1.2,4.1,2.2,17.5"/>
	<path class="st0" d="M696.3,746.7c0,0,24.6-2.9,50.7-15.6c26-12.6,70.8-26.9,81.2-28.8c10.4-2,35.7-5.2,44.9-6.3
		c9.1-1.1,55.2-1.7,56.7-0.8"/>
	<path class="st0" d="M935.6,702.9c0,0-1.2-9.7-11.3-5.9c-9.1,3.5-56.1,25.7-64.8,29.8c-0.9,0.4-1.7,1-2.4,1.8l0,0
		c-1.7,1.8-4.2,2.7-6.7,2.5l-5.3-0.5c-2.7-0.2-5.3,0.8-7,2.8c-6.9,7.9-24,28.4-25,36.3"/>
	<path class="st1" d="M881.2,871.3c2.4,0.1,4.3,0.3,5.7,0.4c16.1,1.3,67.2,4.6,94.2-3.8c27.1-8.4,51.8-7.7,58.4-5.9
		s22.1,25,21.1,29.2s-12.3,5.5-12.3,5.5"/>
	<path class="st1" d="M742.1,874.5c7.2-2.7,15.1-4.9,22.2-5.5c12.8-1,47.7-0.3,77.4,0.7"/>
	<path class="st1" d="M917.8,699.8c0,0,26.5,1.3,38.4,16.5c11.9,15.1,25.3,29.3,14.6,50.8c-10.7,21.5-37.9,37.7-37.9,37.7
		s-68,31.5-78.5,42.2c-10.6,10.7-24,15.9-24,15.9s-1.8,2.4-18,2.9c-16.2,0.5-35.9-0.9-46.2,1.2c-4.8,1-14.5,3.9-24.4,7.5"/>
	<path class="st0" d="M872.5,732c0,0,1.3,9.3-10.6,14.7c-12,5.4-54.6,25-59.8,29.1s-44.8,29.6-50.9,31.4
		c-6.1,1.7-35.3,20.9-42.6,31.8c-7.3,10.9-26.1,32.6-26.1,32.6s-6.3,8.2-7.9,18.9"/>
	<path class="st1" d="M1039.2,866.3c0,0,6,17.3,7.8,18.7c1.8,1.4,5.3,3.8,5.3,3.8"/>
	<line class="st1" x1="1046.9" y1="887.6" x2="1052.3" y2="888.8"/>
	<path class="st1" d="M1040.4,869.8c0,0,3.9,12.7,6.4,17.8c0.7,1.5,1.1,3.1,1,4.8c-0.1,1.6-0.1,3.2-0.2,5.1c-0.2,4-8.5,4.8-8.5,4.8"
		/>
	<path class="st1" d="M1030.5,869.5c0,0,8.5,20.1,8.5,22.2s1.1,9.7-1.8,12.8c-2.9,3.1-10.5,0-10.5,0"/>
	<path class="st1" d="M1018.5,873.8c0,0,8.1,16.4,8.1,16.4c0.2,0.3,0.2,0.7,0.4,1.1c0.3,0.9,0.5,1.8,0.7,2.8
		c0.2,1.2,0.4,2.5,0.3,3.8c0,1.4-0.2,2.8-0.6,4.1c-0.3,1-0.7,2.1-1.4,2.9c-0.7,1-1.6,1.5-2.7,1.9h-14c0,0-4.2-0.3-7-3.3
		s-5.6-6.8-5.6-6.8"/>
	<path class="st1" d="M1002.2,892.9c0,0,4.4,2.3,7.3,4.8c0.9,0.8,1.9,1.6,3.1,1.5c1.5-0.1,3.1-1,2-4.7c-1.8-6.5-4.6-8.5-4.6-8.5
		s-16,14-24,14.6"/>
	<path class="st1" d="M974.3,746.7c0,0,19.8-25.6,62.2-27.9c42.4-2.3,48.4-4.1,49.3-4.5c0.9-0.4,32.7-2.2,42,3.4
		s26.9,19.2,28.7,34.5l1.4,8.2c9,8,3.8,24-0.8,33.9c-2.2,4.8-5.6,9-9.9,12.2c-4.7,3.5-12.6,9.7-23.8,20
		c-19.9,18.4-14.5,38.5-14.5,38.5s79.9,6,84-29.6c4.1-35.6-12.5-59.7-17.1-69.8c-4.6-10.1-19.3-14.2-19.3-14.2"/>
	<path class="st1" d="M958.4,784.1c0,0,19.5,11,40.5,0c3.9-1.7,7.8-3.3,11.7-4.9c3.3-1.3,6.8-2.2,10-3.8c2.6-1.3,5-3,7.4-4.6
		c4.6-3.2,9.2-6.5,13.7-9.9c1.8-1.4,3.6-2.8,5.3-4.2c0.9-0.7,2.1-1.6,2.6-2.6c0-0.1,0.1-0.1,0.1-0.2c0,0,18.6,0.2,28.2,3.8
		s30.3,27.7,34,31.3c3,3,21.4,10.9,30.9,8.3c8.8-2.4,20.7-10.8,19.8-21.1"/>
	<path class="st1" d="M1126.8,726.6c0,0-32.1-7.7-57.1,6.4"/>
	<path class="st1" d="M1109.5,735.1c0,0,32.2,5.6,42.6,20.4"/>
	<path class="st1" d="M1112.8,766c0,0,15.6,9,22.8,9"/>
	<path class="st1" d="M1112.8,773.4c0,0,18.8,14.4,33.8,11.1"/>
	<path class="st1" d="M1112.8,743.1c0,0,21.5,2.2,39.3,19.6"/>
	<path class="st1" d="M974.3,756.8c0,0,8.6,15.8,26,10s57.2-35.7,57.2-35.7"/>
	<path class="st1" d="M963.5,786.3c0,0-28.1,47.6-4,66.6c24.1,19,20,15.5,20,15.5"/>
	<path class="st1" d="M900.4,820.4c0,0-20.6,37.9-13.5,51.3"/>
	<path class="st1" d="M1193.3,823.4c0,0,28-23.4,82.6-22.7c54.6,0.8,74.7,13.1,85,19.3s43,37.1,45.8,43c2.8,5.9,19.3,46.6-14.7,63.9
		c-34,17.3-64.4,23.9-67.2,24.7c-2.8,0.8-29.9,2.8-54.6,2.1c-24.7-0.8-98.6-8.2-112-10c-13.4-1.8-30.4-3.3-43-2.3
		c-12.6,1-42.7,2.6-59.7-6.2c-17-8.8-22.7-16.5-22.7-16.5s-3.1-5.5-0.9-12.8"/>
	<path class="st1" d="M1052.6,875.3c0,0,20.3-14.2,56.1-10.3"/>
	<path class="st1" d="M1165.4,786.3c0,0,4.6,11.2-2.8,25.5"/>
	<path class="st1" d="M1166.8,766c0,0,11.2,13.4,7.1,37.5"/>
	<path class="st1" d="M968.5,771.1c0,0,10.9,14.1,30.3,13"/>
	<path class="st1" d="M924.1,820.4c0,0-15.4,28.8-38.7,41.7"/>
	<path class="st1" d="M411.6,846.1c0,0,53.4,10.6,61.1,25.6c5.7,11.1,20.1,37.6,27.3,51"/>
	<path class="st1" d="M450.3,764.1c0,0-0.2,51.7,17.6,83.3c16,28.4,36.6,61,43.6,67.8"/>
	<path class="st1" d="M500,773c0,0-1.7,13.3-5.4,18.6c-3.7,5.4-12.7,48-8.5,65.7c4.2,17.8,21.4,44.6,24.8,45.7"/>
	<path class="st1" d="M566.9,732c0,0-18.8,40.5-39.4,57.4c-20.6,16.9-37.5,46-37.5,46"/>
	<path class="st1" d="M530,798.2c0,0-25.7,48.9-25.6,63.8c0.1,15,2.8,37,2.8,37"/>
	<path class="st1" d="M575.8,833.4c0,0,23.9-47.6,69.2-60.4"/>
	<path class="st1" d="M635.2,788.5c0,0-44.7,60.7-34.9,106.8"/>
	<path class="st1" d="M635.2,805.9c0,0-19.6,43.2,14.9,87.5"/>
	<path class="st1" d="M613,856c0,0,15.8,19.5,27.9,38.1"/>
	<path class="st1" d="M636.5,848.6c0,0-4.3-29.5,13.6-56"/>
	<path class="st1" d="M1055.4,758.5c0,0,7.4,17.2,3.5,31.1"/>
	<path class="st1" d="M1033.9,811.8c0,0,19.4-1.6,23.6-15.8"/>
	<path class="st1" d="M1076.4,866.3c0,0,1.7-25.9-10.6-35.5"/>
	<path class="st1" d="M986,814.5c0,0,0,24.8,7,29"/>
	<path class="st1" d="M1033.9,769.7c0,0,0.5,17.5,5.3,26.3"/>
	<path class="st1" d="M1047.9,837.3c0,0-1.3,20,1.7,29.1"/>
	<path class="st1" d="M1144,796.9c0,0,0.5,9.5-2.8,14"/>
</g>
<g id="cat_trace">
	<g>
		<path class="st1" d="M483.8,938.4c0,0,33.2-49.2,130.3-42.5c0,0,50.2-2.3,63.3-6.3"/>
		<path class="st1" d="M741.7,874.5c22.3-1.5,48.6-1.1,54.1,0.8"/>
		<path class="st1" d="M621.6,905.6c0,0,13-0.2,21.3-3.4s56.5-21.5,78.7-25.4c5.6-1,12.7-1.7,20.2-2.2"/>
		<path class="st1" d="M739.1,892.2c0,0,66.6-23.5,102.6-22.3"/>
		<path class="st1" d="M865.7,853.9c0,0,8.3,11.9,15.1,17.1c6.9,5.2,8.3,6.9,8.3,6.9s33.4-0.2,49.9,13"/>
		<path class="st1" d="M933.1,887.1c0,0,44.7-3.5,50.5-6.1"/>
		<path class="st1" d="M942.6,900.7c0,0,21-12,26.7-13.6c5.8-1.6,18.5-8.3,19.2-8.6c0.7-0.3,11.7-3.1,9,7.4c0,0-19.5,22.4-21.7,26.2
			c-2.2,3.8-10.4,16.5-10.4,16.5"/>
		<path class="st1" d="M964.5,920.6c0,0,3.7,23.6,0,33.2c-3.7,9.6-14.8,21.6-19.4,21.6c-4.7,0-11.9,3.4-11.9,3.4
			s-15.8,22.4-29.9,8.1c-0.9-0.9-1.5-2.2-1.5-3.5c0-0.4,0.1-0.8,0.2-1.2"/>
		<path class="st1" d="M898.1,973.7l-2.3-1.4c-1.2-0.7-1.6-2.2-1-3.4l0,0c0.5-1.1,1.7-1.7,2.9-1.5c3.4,0.5,10.8,2.1,16,6.4
			c1,0.8,1.2,2.3,0.5,3.4l0,0c-0.8,1.3-2.4,1.9-3.9,1.4l-0.2-0.1c-0.9-0.3-1.9,0-2.6,0.6l-2.2,2c-1.1,1-2.7,1.2-4,0.4l0,0
			c-1.2-0.8-1.9-2.2-1.7-3.6l0.1-1C899.9,975.6,899.2,974.3,898.1,973.7z"/>
		<path class="st1" d="M863.4,966.3c0,0,1.5,12.7,12.4,16.2c10.8,3.5,22,2.8,24.5,1.2c1.9-1.2,1.6-1.5,1.6-1.5"/>
		<path class="st1" d="M863.4,972.2c-7.4-1.5-31.7-17.6-37.7-22.7c-5.9-5.2-5.3-12-5.2-14.9c0.2-2.3,8.2-19.7,11.4-26.4
			c1.3-2.8,2.9-5.5,4.7-8c1.6-2.1,3.4-4.2,4.8-4.4c0,0-1.9-24.4,2.1-35.4c4-11,10.2-11,10.2-11s7.5-1.3,11.8,4.6
			c4.3,5.9,9.4,20.7,12.1,23.6s4.3,5.9,7.8,7.8"/>
		<path class="st1" d="M958.3,964.4c0,0,9.5,3.2,11.9,13.4c2.4,10.2-14.4,9.7-14.4,9.7"/>
		<path class="st1" d="M957.6,974.7c0,0,7.2,7.5-1.8,12.8c-1.4,0.9-3,1.3-4.7,1.5c-2.3,0.2-5.7,0.3-7.5-0.2"/>
		<path class="st1" d="M943,982.1c0,0,1.8,7.4-1.9,7.7c-3.7,0.3-11.1,0.8-14.8-3.5"/>
		<path class="st1" d="M874.3,981.9c0,0,8.9,20.5,33.1,8.2"/>
		<path class="st1" d="M774.8,937.5c0,0,9-5.9,21-3.8c12,2.1,24.6,4.7,24.6,4.7"/>
		<path class="st1" d="M876.8,986c0,0-74.7,3.6-79.2,4.8c-4.5,1.3-48.5,2.6-53-2.8c-4.4-5.4-3.6-12.8-2.5-14.7
			c1.1-1.9,5.7-10.7,6.3-14.7s19-34.3,24.4-36.2"/>
		<path class="st1" d="M770.1,914.2c0,0-9.7,17.6-9.8,23.3"/>
		<path class="st1" d="M741.3,983.7c0,0-73.1,4.6-95.3,1.3c-22.2-3.3-69.1-3.1-69.1-3.1s-35.1-12.1-35.4-14.6c-0.4-2.5-2-3.9,0-6.6"
			/>
		<path class="st1" d="M589.6,929.4c0,0-69.2,59.2-105.7,23.9"/>
		<path class="st1" d="M492.1,929.4c0,0-8.3-0.2-18.5,10.1c-10.1,10.3-19.8,17.6-20.9,17.6s-10.3,5.4-11.4,6.7s-3.9,3.3-4.4,4.7
			c-0.4,1.3-0.6,3.8,1.2,5.1c1.9,1.3,5.1,0,5.1,0"/>
		<path class="st1" d="M489.9,960.7c0,0-20.7,9.6-28.4,10.9s-17.3,5.1-19,9.1c-0.5,1.2-0.8,2.3-0.9,3.3c-0.2,2.1,1.3,3.9,3.3,4.1
			c3.3,0.3,8.6,0.4,12.4-2"/>
		<path class="st1" d="M442.6,987.2c0,0-2.8,7.9,0.9,9.7c1.7,0.8,3.9,1.2,6.2,1.3c2.8,0.1,5.5-0.3,7.3-1.3"/>
		<path class="st1" d="M569.8,979.4c0,0-35.3,6.5-52.5,2.2c0,0-8.8-1.3-15.1,0.9c-6.2,2.3-36.3,17.7-38.8,18.4s-10.6,1.7-13.7-2.8"
			/>
		<path class="st1" d="M442.8,980.2c0,0-5.6-0.1-4.5-6.7"/>
		<path class="st1" d="M872.1,928.6c0,0,19.1,6.5,22.4,18.2"/>
		<path class="st1" d="M923,951.7c0,0,3.4-6.8,21.5-4.9"/>
	</g>
</g>
<g id="boombox_trace">
	<g>
		<path class="st1" d="M501.6,601.8V400.6c0-2-1.7-3.7-3.7-3.7H172c-2,0-3.7,1.7-3.7,3.7v216.2c0,2,1.7,3.7,3.7,3.7h325.9
			c2,0,3.7-1.7,3.7-3.7V601.8"/>
		<line class="st1" x1="168.3" y1="443.3" x2="501.6" y2="443.3"/>
		<path class="st0" d="M489.8,438.4h-311c-2.2,0-4-1.8-4-4v-27.9c0-2.2,1.8-4,4-4h311c2.2,0,4,1.8,4,4v27.9
			C493.9,436.6,492.1,438.4,489.8,438.4z"/>
		<circle class="st1" cx="414" cy="534.8" r="76.5"/>
		<circle class="st1" cx="414" cy="534.8" r="83.9"/>
		<path class="st1" d="M168.3,418.6l-1.3-1.3c-1.9-2-3-4.6-3-7.4v-69.5c0-5.1,4.2-9.3,9.3-9.3h324.4c4.5,0,8.1,3.6,8.1,8.1v69.6
			c0,3-1.1,5.9-3.1,8.1l-1,1.1"/>
		<path class="st1" d="M168.3,399.3v-45.5c0-3.6,2.9-6.6,6.5-6.6h317.9c4.9,0,8.8,4,8.8,8.9v54.5"/>
		<path class="st1" d="M493,337H177.5c-1.5,0-2.6,1.2-2.6,2.6v1.1c0,1.5,1.2,2.6,2.6,2.6H493c1.5,0,2.6-1.2,2.6-2.6v-1.1
			C495.7,338.2,494.5,337,493,337z"/>
		<path class="st1" d="M207.1,387.7h-6.3c-3,0-5.5,2.5-5.5,5.5v3.8h17.3v-3.8C212.6,390.1,210.1,387.7,207.1,387.7z"/>
		<path class="st1" d="M227.6,387.7h-6.3c-3,0-5.5,2.5-5.5,5.5v3.8h17.3v-3.8C233.1,390.1,230.7,387.7,227.6,387.7z"/>
		<path class="st1" d="M247.1,387.7h-6.3c-3,0-5.5,2.5-5.5,5.5v3.8h17.3v-3.8C252.6,390.1,250.2,387.7,247.1,387.7z"/>
		<path class="st1" d="M267.1,387.7h-6.3c-3,0-5.5,2.5-5.5,5.5v3.8h17.3v-3.8C272.6,390.1,270.2,387.7,267.1,387.7z"/>
		<path class="st1" d="M288,387.7h-6.3c-3,0-5.5,2.5-5.5,5.5v3.8h17.3v-3.8C293.5,390.1,291.1,387.7,288,387.7z"/>
		<path class="st1" d="M307.9,387.7h-6.3c-3,0-5.5,2.5-5.5,5.5v3.8h17.3v-3.8C313.4,390.1,310.9,387.7,307.9,387.7z"/>
		<path class="st1" d="M446.7,396.9h18.2v-4.3c0-3-2.5-5.5-5.5-5.5h-7.2c-3,0-5.5,2.5-5.5,5.5V396.9z"/>
		<line class="st1" x1="386.4" y1="347.2" x2="446.7" y2="395.5"/>
		<line class="st1" x1="222" y1="215.3" x2="366.2" y2="331.1"/>
		<polyline class="st1" points="371.7,331.1 222.7,214.5 222,215.3 		"/>
		<line class="st1" x1="446.7" y1="389.8" x2="392.3" y2="347.2"/>
		<rect x="181.5" y="443.3" class="st1" width="144.6" height="168"/>
		<path class="st1" d="M191.6,461.9h123.7c2.7,0,4.8,2.2,4.8,4.8v133.4c0,2.7-2.2,4.8-4.8,4.8H191.6c-2.7,0-4.8-2.2-4.8-4.8V466.7
			C186.8,464.1,188.9,461.9,191.6,461.9z"/>
		<path class="st1" d="M305.4,556.9h-104c-3.7,0-6.7-3-6.7-6.7v-60.7c0-3.7,3-6.7,6.7-6.7h104c3.7,0,6.7,3,6.7,6.7v60.7
			C312.1,554,309.1,556.9,305.4,556.9z"/>
		<path class="st1" d="M265.2,499.4h-22.3c-1.4,0-2.6,1.2-2.6,2.6v11.6c0,1.4,1.2,2.6,2.6,2.6h22.3c1.4,0,2.6-1.2,2.6-2.6V502
			C267.8,500.6,266.6,499.4,265.2,499.4z"/>
		<circle class="st1" cx="230.8" cy="507.8" r="6.3"/>
		<circle class="st1" cx="278" cy="507.8" r="6.3"/>
		<line class="st1" x1="186.8" y1="566.1" x2="320.1" y2="566.1"/>
		<line class="st1" x1="186.8" y1="569.9" x2="320.1" y2="569.9"/>
		<circle class="st1" cx="414" cy="534.8" r="16.9"/>
		<path class="st1" d="M305.8,554.9H200.7c-2.3,0-4.2-1.9-4.2-4.2v-6.5c0-2.3,1.9-4.2,4.2-4.2h105.1c2.3,0,4.2,1.9,4.2,4.2v6.5
			C309.9,553,308.1,554.9,305.8,554.9z"/>
		<path class="st1" d="M501.6,432.5L501.6,432.5l0,43.2h0c7.4,0,13.4-6,13.4-13.4v-16.4C515,438.5,509,432.5,501.6,432.5z"/>
		<path class="st1" d="M390.8,389.8H385c-2.3,0-4.1,1.8-4.1,4.1v3h14v-3C394.9,391.6,393.1,389.8,390.8,389.8z"/>
		<path class="st1" d="M429.2,396.9h-16.7c-0.3,0-0.6-0.3-0.6-0.6v-2.9c0-3.4,2.8-6.2,6.2-6.2h5.5c3.4,0,6.2,2.8,6.2,6.2v2.9
			C429.9,396.7,429.6,396.9,429.2,396.9z"/>
		<path class="st1" d="M300.3,551.6h-94.2c-2.3,0-4.2-1.9-4.2-4.2v0c0-2.3,1.9-4.2,4.2-4.2h94.2c2.3,0,4.2,1.9,4.2,4.2v0
			C304.5,549.7,302.6,551.6,300.3,551.6z"/>
		<path class="st1" d="M292.8,550.1h-79.2c-1.5,0-2.7-1.2-2.7-2.7v0c0-1.5,1.2-2.7,2.7-2.7h79.2c1.5,0,2.7,1.2,2.7,2.7v0
			C295.5,548.9,294.3,550.1,292.8,550.1z"/>
		<line class="st1" x1="228.2" y1="544.8" x2="228.2" y2="550.1"/>
		<line class="st1" x1="267.1" y1="544.8" x2="267.1" y2="550.1"/>
		<path class="st1" d="M506.3,438.4H503v12.4h10.3v-5.4C513.4,441.6,510.2,438.4,506.3,438.4z"/>
		<path class="st1" d="M513.4,453.5H503v19.8h0c5.7,0,10.3-4.6,10.3-10.3V453.5z"/>
		<g id="XMLID_1_">
			<g>
			</g>
			<g>
				<path class="st1" d="M280.2,601.4h32.1c1.8,0,3.2-1.4,3.2-3.2v-21.5c0-1.8-1.4-3.2-3.2-3.2h-32.1c-1.8,0-3.2,1.4-3.2,3.2v21.5
					C277,599.9,278.4,601.4,280.2,601.4z"/>
				<path class="st1" d="M237.3,601.4h32.2c1.7,0,3.2-1.4,3.2-3.2v-21.5c0-1.8-1.4-3.2-3.2-3.2h-32.2c-1.8,0-3.2,1.4-3.2,3.2v21.5
					C234.2,599.9,235.6,601.4,237.3,601.4z"/>
				<path class="st1" d="M194.5,601.4h32.2c1.8,0,3.2-1.4,3.2-3.2v-21.5c0-1.8-1.4-3.2-3.2-3.2h-32.2c-1.7,0-3.2,1.4-3.2,3.2v21.5
					C191.3,599.9,192.7,601.4,194.5,601.4z"/>
			</g>
		</g>
	</g>
</g>
<g id="curtain" class="st2">
	<path class="st3" d="M470-5.5c5,16.3,38.8,129.7,41.6,137.9c16.2,48.7,41.1,93.3,59.7,140.9c22.5,57.5,36,118.8,50.8,178
		c4.4,17.5,16.1,116,16.1,116s-16,2.5-39.8,5.2c-23.7,2.8-108.5,19-108.5,19c-80.4,6.5-134.4,2.5-134.4,2.5
		c-27.1-3.5-146.3-14.8-146.3-14.8S28.1,561.1,0,579.4V0L470-5.5z"/>
</g>
<g id="fireflies" class="st2">
	<g class="st4">
		<polyline class="st0" points="622.3,79.8 620.8,87.7 617.8,91.8 		"/>
		<path class="st0" d="M635.9,75.5c0,0,6.1,6.3,8.4,6.4l1.8,0.5l-0.2,1.4"/>
		<path class="st0" d="M622.5,73.7c0,0-3.2-0.6-3.4-1.5c-0.1-0.9-0.3-3.5-0.3-3.5l-2-1l-0.3-1"/>
		<polyline class="st0" points="632.3,71.7 633,68 631.3,65.1 631.3,61.9 630.9,61.1 		"/>
		<polyline class="st0" points="623,68.7 621.4,66.4 621.3,64 622.1,63.2 621.6,62.6 		"/>
		<polyline class="st0" points="628,66.9 627.1,63.4 625.7,62.2 625.2,61.6 		"/>
		
			<ellipse transform="matrix(0.9463 -0.3232 0.3232 0.9463 6.5045 208.5665)" class="st0" cx="631.3" cy="84.7" rx="6.5" ry="19.6"/>
		<path class="st0" d="M631.3,99.2c0,0-2.9,8.1-7.3,5.4c-4.4-2.7-1.3-28.3-1.3-28.3"/>
		<path class="st0" d="M640.1,96.8c0,0,8.2,4.8,10.3-0.3c2.1-5.1-17.7-24.1-17.7-24.1"/>
		<path class="st0" d="M628.3,94.4c0,0,3.2-6.8,11.3-3.7"/>
		<path class="st0" d="M629.2,67.9c-1.4,4.3-6.6,2.3-6.6,2.3"/>
		<path class="st0" d="M629.2,93c0,0-7.1-36.8,8.2-2.9"/>
		<path class="st0" d="M622.5,75c0,0,7.2,3.6,9.9-3.3"/>
		<path class="st0" d="M622.6,70.2c0,0,6.6,8.1,6.6-2.3"/>
	</g>
	<g class="st4">
		<polyline class="st0" points="466.7,269 461,273.4 456.6,274.4 		"/>
		<path class="st0" d="M478.4,274.3c0,0,0.3,7.9,1.8,9.3l0.9,1.4l-1,0.8"/>
		<path class="st0" d="M470.5,265c0,0-1.8-2.3-1.3-3s1.9-2.5,1.9-2.5l-0.7-1.8l0.4-0.9"/>
		<polyline class="st0" points="478.3,269.6 481,267.6 481.6,264.6 483.5,262.5 483.7,261.7 		"/>
		<polyline class="st0" points="473.8,262 474.2,259.5 475.5,257.8 476.6,257.8 476.6,257.1 		"/>
		<polyline class="st0" points="478.3,263.8 479.8,261 479.6,259.3 479.6,258.6 		"/>
		
			<ellipse transform="matrix(0.3921 -0.9199 0.9199 0.3921 30.1519 600.9596)" class="st0" cx="469.8" cy="277.7" rx="17.6" ry="5.9"/>
		<path class="st0" d="M461.1,287.3c0,0-6.8,3.6-8.1-0.8c-1.3-4.4,16.1-19.7,16.1-19.7"/>
		<path class="st0" d="M468.4,291.1c0,0,2.6,8.1,7.1,6c4.4-2.1,2.7-26.7,2.7-26.7"/>
		<path class="st0" d="M462,282.3c0,0,6.2-2.7,9.7,4.3"/>
		<path class="st0" d="M478.5,265.2c-3.5,2-5.8-2.4-5.8-2.4"/>
		<path class="st0" d="M463.5,282c0,0,17.3-28.8,7.2,3"/>
		<path class="st0" d="M469.7,265.9c0,0,2.7,6.8,8.6,3.7"/>
		<path class="st0" d="M472.7,262.8c0,0-0.5,9.4,5.8,2.4"/>
	</g>
	<g class="st4">
		<polyline class="st0" points="473,24.6 466.7,26.5 462.5,26 		"/>
		<path class="st0" d="M481.5,32.9c0,0-2.2,6.9-1.4,8.7l0.4,1.5l-1.1,0.4"/>
		<path class="st0" d="M477.6,22.3c0,0-0.9-2.6-0.2-3c0.6-0.4,2.4-1.6,2.4-1.6l0-1.8l0.6-0.6"/>
		<polyline class="st0" points="482.9,28.8 485.9,27.8 487.3,25.4 489.7,24.1 490.1,23.5 		"/>
		<polyline class="st0" points="481.4,20.7 482.5,18.6 484.2,17.6 485.1,17.9 485.4,17.3 		"/>
		<polyline class="st0" points="484.7,23.6 487,21.7 487.3,20.1 487.5,19.6 		"/>
		
			<ellipse transform="matrix(0.6828 -0.7306 0.7306 0.6828 125.8827 356.0515)" class="st0" cx="473" cy="33.1" rx="16.3" ry="5.4"/>
		<path class="st0" d="M462.4,38.7c0,0-7.1,1-6.8-3.3s20.2-12,20.2-12"/>
		<path class="st0" d="M467.5,44.3c0,0-0.3,7.9,4.3,7.5s10.8-22.4,10.8-22.4"/>
		<path class="st0" d="M464.7,34.7c0,0,6.2-0.3,7.1,6.8"/>
		<path class="st0" d="M484.5,25c-3.7,0.6-4.3-3.9-4.3-3.9"/>
		<path class="st0" d="M466.1,34.8c0,0,24.2-19.6,5.4,4.9"/>
		<path class="st0" d="M476.6,22.8c0,0,0.2,6.7,6.3,6"/>
		<path class="st0" d="M480.2,21c0,0-3.4,8,4.3,3.9"/>
	</g>
	<g class="st4">
		<polyline class="st0" points="292.5,75 291.9,81 289.9,84.4 		"/>
		<path class="st0" d="M302.5,70.7c0,0,5.1,4.3,6.9,4.3l1.4,0.2l-0.1,1.1"/>
		<path class="st0" d="M292.1,70.2c0,0-2.5-0.2-2.7-0.9c-0.1-0.7-0.5-2.6-0.5-2.6l-1.6-0.6l-0.3-0.8"/>
		<polyline class="st0" points="299.5,68.1 299.8,65.2 298.3,63.1 298,60.7 297.7,60.1 		"/>
		<polyline class="st0" points="292.2,66.4 290.8,64.8 290.5,63 291.1,62.3 290.7,61.8 		"/>
		<polyline class="st0" points="295.9,64.7 295,62.1 293.8,61.3 293.4,60.9 		"/>
		<ellipse transform="matrix(0.9123 -0.4094 0.4094 0.9123 -5.6753 129.5347)" class="st0" cx="299.7" cy="78" rx="5" ry="15"/>
		<path class="st0" d="M300.7,89c0,0-1.7,6.4-5.2,4.6c-3.5-1.8-3-21.4-3-21.4"/>
		<path class="st0" d="M307.3,86.6c0,0,6.6,3,7.9-1c1.2-4-15.2-17.1-15.2-17.1"/>
		<path class="st0" d="M298.1,85.6c0,0,1.9-5.4,8.3-3.6"/>
		<path class="st0" d="M296.9,65.4c-0.8,3.4-4.9,2.2-4.9,2.2"/>
		<path class="st0" d="M298.7,84.5c0,0-8-27.5,6.1-2.8"/>
		<path class="st0" d="M292.2,71.3c0,0,5.8,2.3,7.3-3.2"/>
		<path class="st0" d="M292,67.6c0,0,5.6,5.7,4.9-2.2"/>
	</g>
	<g class="st4">
		<polyline class="st0" points="657.2,289.8 656.9,296 655,299.6 		"/>
		<path class="st0" d="M667.5,285c0,0,5.4,4.3,7.2,4.1l1.5,0.2l0,1.1"/>
		<path class="st0" d="M656.7,284.9c0,0-2.6-0.1-2.8-0.8s-0.6-2.7-0.6-2.7l-1.6-0.6l-0.4-0.8"/>
		<polyline class="st0" points="664.3,282.4 664.5,279.4 662.8,277.3 662.5,274.8 662.1,274.2 		"/>
		<polyline class="st0" points="656.6,281 655.2,279.3 654.8,277.5 655.4,276.7 655,276.3 		"/>
		<polyline class="st0" points="660.4,279 659.4,276.4 658.1,275.6 657.7,275.2 		"/>
		
			<ellipse transform="matrix(0.8973 -0.4415 0.4415 0.8973 -60.9089 323.5625)" class="st0" cx="664.8" cy="292.7" rx="5.2" ry="15.5"/>
		<path class="st0" d="M666.2,304c0,0-1.5,6.7-5.2,5c-3.7-1.7-3.9-22-3.9-22"/>
		<path class="st0" d="M672.9,301.3c0,0,6.9,2.9,8.1-1.3c1.1-4.2-16.3-17.1-16.3-17.1"/>
		<path class="st0" d="M663.4,300.5c0,0,1.8-5.7,8.5-4"/>
		<path class="st0" d="M661.5,279.7c-0.7,3.5-4.9,2.5-4.9,2.5"/>
		<path class="st0" d="M664,299.4c0,0-9.3-28.1,6.2-3.1"/>
		<path class="st0" d="M656.9,286c0,0,6,2.1,7.4-3.6"/>
		<path class="st0" d="M656.5,282.2c0,0,6,5.7,4.9-2.5"/>
	</g>
	<circle class="st5" cx="465.6" cy="287.4" r="8.4"/>
	<circle class="st5" cx="463.9" cy="40.9" r="8.4"/>
	<circle class="st5" cx="302.5" cy="87.7" r="8.4"/>
	<circle class="st5" cx="636.7" cy="94.4" r="8.4"/>
	<circle class="st5" cx="671.8" cy="300.5" r="8.4"/>
</g>
<g id="webpage_stuff">
</g>
<g id="clouds">
</g>
<g id="Layer_14" class="st2">
	<path class="st6" d="M159.9,48c0,0,388,51,556.9-5.4"/>
	<ellipse class="st6" cx="252.9" cy="73.8" rx="4.6" ry="16"/>
	<ellipse class="st6" cx="347.9" cy="82.2" rx="4.6" ry="16"/>
	<ellipse class="st6" cx="490.5" cy="86.9" rx="4.6" ry="16"/>
	<ellipse class="st6" cx="585.6" cy="82.2" rx="4.6" ry="16"/>
	<ellipse class="st6" cx="395.4" cy="82.2" rx="4.6" ry="16"/>
	<ellipse class="st6" cx="443" cy="86.9" rx="4.6" ry="16"/>
	<ellipse class="st6" cx="538" cy="86.9" rx="4.6" ry="16"/>
	<ellipse class="st6" cx="300.4" cy="78.4" rx="4.6" ry="16"/>
	<ellipse class="st6" cx="205.3" cy="70.8" rx="4.6" ry="16"/>
	<ellipse class="st6" cx="633.1" cy="77.5" rx="4.6" ry="16"/>
	<ellipse class="st6" cx="680.6" cy="71.6" rx="4.6" ry="16"/>
	<ellipse class="st5" cx="206.4" cy="71.6" rx="9.5" ry="15.7"/>
	<ellipse class="st5" cx="252.9" cy="73.8" rx="9.5" ry="15.7"/>
</g>
</svg>
